<svg width="47" height="33" viewBox="0 0 47 33" fill="none" xmlns="http://www.w3.org/2000/svg">
<path d="M25.7618 8.36616C23.856 7.54908 21.1783 6.27466 18.6639 6.27466C14.9374 6.27466 11.5659 8.01339 11.5659 13.2463C11.5659 20.0772 13.4398 24.9727 16.3056 27.9384C17.3223 28.9925 19.8013 28.6648 20.8607 27.6093C21.5669 26.9052 22.314 25.6029 23.1001 23.7038C23.6182 22.6288 24.6829 21.6067 25.7618 21.6123C26.83 21.6123 27.9089 22.6399 28.4235 23.7038C29.2096 25.6029 29.9567 26.9038 30.6629 27.6079C31.7223 28.6662 34.2119 28.9925 35.218 27.9384C38.0838 24.9727 39.9577 20.0785 39.9577 13.2463C39.9577 8.03152 36.572 6.27466 32.8597 6.27466C30.3346 6.27466 27.6782 7.54489 25.7618 8.36616Z" stroke="white" stroke-linecap="round" stroke-linejoin="round"/>
<path d="M40.9761 26.4924C41.4311 26.5117 41.4311 26.5117 41.6412 26.5855C41.8605 26.7267 41.9034 26.8444 41.9739 27.0171C42.1681 27.3861 42.4881 27.6251 43.0915 27.8698C43.5529 27.9892 43.9558 28.0516 44.4645 28.109C44.8796 28.1784 44.8796 28.1784 45.143 28.3173C45.3037 28.545 45.2195 28.6427 45.0073 28.8574C44.683 28.9346 44.683 28.9346 44.2889 28.9809C43.4546 29.0993 42.7547 29.2354 42.2863 29.6068C42.0768 29.8241 41.9325 30.041 41.8143 30.2733C41.6866 30.4624 41.6866 30.4624 41.4551 30.555C41.0991 30.5943 40.8831 30.5798 40.5371 30.5241C40.1489 30.378 40.0833 30.2433 39.9863 30.0148C39.8055 29.6774 39.5852 29.4423 39.0044 29.2278C38.4486 29.0889 37.8672 29.0022 37.2722 28.9114C36.9609 28.8574 36.9609 28.8574 36.8332 28.734C36.7932 28.5218 36.7932 28.5218 36.8332 28.3019C37.1789 28.1423 37.4909 28.0891 37.9507 28.0395C38.672 27.9406 39.1561 27.7738 39.643 27.4994C39.8888 27.2776 40.0224 27.0738 40.1619 26.8319C40.3248 26.5642 40.3943 26.518 40.9761 26.4924ZM40.9202 28.0549C40.7705 28.124 40.6216 28.1935 40.4732 28.2633C40.3902 28.3019 40.3073 28.3406 40.2218 28.3805C39.9979 28.4787 39.9979 28.4787 40.0262 28.6105C40.2352 28.6951 40.4485 28.7772 40.6648 28.8574C40.7947 28.9181 40.9236 28.9793 41.048 29.0426C41.1481 28.9828 41.2482 28.9229 41.3513 28.8613C41.5477 28.7439 41.6601 28.6786 41.942 28.6105C41.7398 28.3467 41.3665 28.2238 40.9202 28.0549Z" fill="white"/>
<path d="M12.7029 29.2812C13.0561 29.2944 13.0561 29.2944 13.2191 29.3448C13.3894 29.4412 13.4227 29.5215 13.4775 29.6395C13.6282 29.8914 13.8766 30.0546 14.3451 30.2216C14.7032 30.3031 15.016 30.3457 15.4109 30.3849C15.7332 30.4323 15.7332 30.4323 15.9377 30.5271C16.0624 30.6826 15.9971 30.7492 15.8323 30.8958C15.5806 30.9485 15.5806 30.9485 15.2746 30.9801C14.6269 31.061 14.0836 31.1539 13.7199 31.4075C13.5573 31.5558 13.4453 31.7039 13.3535 31.8625C13.2544 31.9916 13.2544 31.9916 13.0747 32.0548C12.7983 32.0816 12.6307 32.0718 12.362 32.0337C12.0607 31.934 12.0098 31.842 11.9344 31.686C11.7941 31.4556 11.6231 31.2951 11.1722 31.1487C10.7407 31.0539 10.2894 30.9947 9.82745 30.9327C9.58577 30.8958 9.58577 30.8958 9.48662 30.8116C9.45563 30.6667 9.45563 30.6667 9.48662 30.5166C9.75501 30.4077 9.99725 30.3713 10.3542 30.3375C10.9141 30.27 11.29 30.1561 11.668 29.9687C11.8588 29.8173 11.9625 29.6782 12.0708 29.513C12.1973 29.3302 12.2512 29.2987 12.7029 29.2812ZM12.6595 30.348C12.5432 30.3951 12.4277 30.4426 12.3124 30.4902C12.248 30.5166 12.1836 30.543 12.1172 30.5702C11.9435 30.6373 11.9435 30.6373 11.9654 30.7273C12.1276 30.785 12.2933 30.8411 12.4612 30.8958C12.5621 30.9372 12.6621 30.9791 12.7586 31.0223C12.8363 30.9814 12.9141 30.9406 12.9941 30.8985C13.1466 30.8183 13.2338 30.7738 13.4527 30.7273C13.2957 30.5471 13.006 30.4632 12.6595 30.348Z" fill="white"/>
<path d="M4.39129 16.3554C4.76647 16.4017 4.76647 16.4017 5.02191 16.5252C5.15544 16.7239 5.2669 16.9247 5.38013 17.1263C5.63594 17.4637 6.02006 17.6571 6.67281 17.8275C7.08297 17.9138 7.50842 17.9668 7.94204 18.0185C8.21495 18.0684 8.21495 18.0684 8.47039 18.2536C8.44644 18.4735 8.44644 18.4735 8.34267 18.6857C7.98246 18.8018 7.75467 18.8423 7.34485 18.894C6.63393 18.9946 6.1317 19.1186 5.64456 19.3956C5.35756 19.6545 5.18597 19.9164 5.01293 20.1973C4.89419 20.3524 4.89419 20.3524 4.63875 20.4141C4.19971 20.4372 4.19971 20.4372 3.7447 20.4141C3.40026 20.2357 3.31208 20.0266 3.17794 19.7968C2.98323 19.476 2.79697 19.2747 2.18211 19.0971C1.69264 18.973 1.21585 18.8672 0.679385 18.8014C0.296221 18.7474 0.296221 18.7474 0.0407782 18.5622C-0.0292292 18.2374 -0.0292292 18.2374 0.193445 18.0925C0.485363 17.9838 0.726019 17.9639 1.0865 17.9295C1.99763 17.8181 2.58259 17.5949 3.08214 17.2119C3.24476 17.0051 3.38346 16.7967 3.50921 16.584C3.70117 16.3693 3.92959 16.3372 4.39129 16.3554ZM3.90734 18.0395C3.78732 18.0996 3.78732 18.0996 3.66487 18.161C3.5842 18.2011 3.50353 18.2412 3.42041 18.2825C3.35883 18.3137 3.29726 18.3449 3.23381 18.3771C3.40793 18.503 3.40793 18.503 3.61698 18.624C3.70127 18.624 3.78557 18.624 3.87242 18.624C3.95672 18.7054 4.04101 18.7869 4.12786 18.8709C4.21216 18.8709 4.29646 18.8709 4.38331 18.8709C4.55838 18.7699 4.72823 18.6668 4.89419 18.5622C5.02039 18.4998 5.1478 18.4379 5.27736 18.3771C5.13446 18.3047 4.99059 18.2327 4.8463 18.161C4.76628 18.1209 4.68627 18.0808 4.60383 18.0395C4.30108 17.9097 4.21009 17.9097 3.90734 18.0395Z" fill="white"/>
<path d="M35.5739 13.7993C35.9188 13.8537 35.9188 13.8537 36.1231 14.028C36.4227 15.4217 35.3458 16.9817 34.418 18.2437C34.3886 18.2838 34.3592 18.3238 34.3289 18.3651C34.2441 18.4799 34.1583 18.5944 34.072 18.7087C34.0218 18.7752 33.9717 18.8417 33.92 18.9102C33.7883 19.0647 33.6736 19.1903 33.4665 19.3149C32.8533 19.3585 32.8533 19.3585 32.5759 19.24C32.4447 19.1406 32.4447 19.1406 32.4399 18.9191C32.5336 18.5627 32.7963 18.2427 33.0495 17.9148C33.1937 17.7273 33.3326 17.5386 33.4713 17.3498C33.5118 17.2946 33.5118 17.2946 33.5532 17.2383C34.2466 16.2884 34.5707 15.2789 34.7445 14.2572C34.7948 14.028 34.7948 14.028 34.9608 13.8755C35.2035 13.7956 35.2035 13.7956 35.5739 13.7993Z" fill="white"/>
<path d="M32.7515 19.7215C33.058 19.8377 33.058 19.8377 33.0987 19.9491C33.0921 20.3117 33.0182 20.6156 32.5471 20.8834C32.016 20.9156 32.016 20.9156 31.7488 20.8108C31.5465 20.6412 31.5123 20.5214 31.5716 20.3183C31.5985 20.2628 31.6254 20.2072 31.6531 20.15C31.6789 20.0941 31.7047 20.0382 31.7313 19.9807C31.9304 19.6977 32.271 19.6987 32.7515 19.7215Z" fill="white"/>
<path d="M10.9695 0C11.3227 0.0175595 11.3227 0.0175595 11.4857 0.0847244C11.656 0.213212 11.6893 0.320381 11.7441 0.477617C11.8948 0.813529 12.1432 1.03107 12.6117 1.25375C12.9698 1.36249 13.2826 1.41926 13.6776 1.47148C13.9998 1.5347 13.9998 1.5347 14.2043 1.66113C14.329 1.86843 14.2637 1.95732 14.0989 2.15279C13.8472 2.22303 13.8472 2.22303 13.5412 2.26517C12.8935 2.373 12.3502 2.49688 11.9865 2.83498C11.8239 3.03277 11.7119 3.23017 11.6201 3.44165C11.521 3.61374 11.521 3.61374 11.3413 3.69802C11.0649 3.73382 10.8973 3.72068 10.6286 3.66993C10.3273 3.53695 10.2764 3.4143 10.201 3.20636C10.0607 2.89918 9.8897 2.68518 9.4388 2.48993C9.00733 2.3635 8.55597 2.28462 8.09405 2.20196C7.85237 2.15279 7.85237 2.15279 7.75322 2.04041C7.72223 1.84726 7.72223 1.84726 7.75322 1.64708C8.02161 1.50188 8.26385 1.45336 8.6208 1.40827C9.18074 1.31828 9.55659 1.16642 9.93456 0.916604C10.1254 0.714759 10.2291 0.529218 10.3374 0.309047C10.4639 0.0653053 10.5178 0.0232695 10.9695 0ZM10.9261 1.42232C10.8098 1.48518 10.6943 1.54848 10.5791 1.61196C10.5146 1.64716 10.4502 1.68236 10.3838 1.71863C10.2101 1.80805 10.2101 1.80805 10.232 1.92803C10.3942 2.00505 10.5599 2.07977 10.7278 2.15279C10.8287 2.20799 10.9287 2.26375 11.0252 2.32136C11.1029 2.26689 11.1807 2.21242 11.2607 2.1563C11.4132 2.04942 11.5004 1.99005 11.7193 1.92803C11.5623 1.68786 11.2726 1.57598 10.9261 1.42232Z" fill="white"/>
<path d="M43.3489 4.18708C43.6385 4.22926 43.6385 4.22926 43.8357 4.34176C43.9388 4.52289 44.0248 4.70578 44.1122 4.88955C44.3097 5.19697 44.6062 5.37324 45.1101 5.52852C45.4268 5.6071 45.7552 5.65545 46.09 5.70254C46.3006 5.74802 46.3006 5.74802 46.4978 5.91677C46.4793 6.11717 46.4793 6.11717 46.3992 6.31053C46.1212 6.41629 45.9453 6.45324 45.6289 6.50037C45.0801 6.59198 44.6924 6.705 44.3163 6.95741C44.0948 7.19335 43.9623 7.43198 43.8287 7.688C43.7371 7.82929 43.7371 7.82929 43.5399 7.88554C43.201 7.90663 43.201 7.90663 42.8497 7.88554C42.5838 7.723 42.5157 7.53246 42.4122 7.32303C42.2619 7.03069 42.1181 6.84729 41.6434 6.68538C41.2656 6.57237 40.8975 6.47593 40.4833 6.416C40.1875 6.36678 40.1875 6.36678 39.9904 6.19803C39.9363 5.90204 39.9363 5.90204 40.1082 5.77C40.3336 5.67093 40.5193 5.65281 40.7976 5.62146C41.501 5.51995 41.9526 5.31653 42.3382 4.96755C42.4638 4.77908 42.5708 4.58922 42.6679 4.39538C42.8161 4.19968 42.9924 4.17048 43.3489 4.18708ZM42.9753 5.72166C42.8826 5.77647 42.8826 5.77647 42.7881 5.8324C42.7258 5.86894 42.6635 5.90549 42.5994 5.94314C42.5518 5.97157 42.5043 5.99999 42.4553 6.02928C42.5897 6.14402 42.5897 6.14402 42.7511 6.25428C42.8162 6.25428 42.8813 6.25428 42.9483 6.25428C43.0134 6.32853 43.0784 6.40278 43.1455 6.47928C43.2106 6.47928 43.2756 6.47928 43.3427 6.47928C43.4778 6.38725 43.609 6.29327 43.7371 6.19803C43.8345 6.14111 43.9329 6.08471 44.0329 6.02928C43.9226 5.96331 43.8115 5.89777 43.7001 5.8324C43.6383 5.79585 43.5766 5.75931 43.5129 5.72166C43.2792 5.60341 43.209 5.60341 42.9753 5.72166Z" fill="white"/>
</svg>
