<svg width="20" height="20" viewBox="0 0 20 20" fill="none" xmlns="http://www.w3.org/2000/svg">
<path d="M1 10.09C1 11.2678 1.23279 12.434 1.68508 13.5222C2.13738 14.6103 2.80031 15.5991 3.63604 16.4319C4.47177 17.2647 5.46392 17.9254 6.55585 18.3761C7.64778 18.8268 8.8181 19.0588 10 19.0588C11.1819 19.0588 12.3522 18.8268 13.4442 18.3761C14.5361 17.9254 15.5282 17.2647 16.364 16.4319C17.1997 15.5991 17.8626 14.6103 18.3149 13.5222C18.7672 12.434 19 11.2678 19 10.09C19 7.71126 18.0518 5.43 16.364 3.74801C14.6761 2.06602 12.3869 1.12109 10 1.12109C7.61305 1.12109 5.32387 2.06602 3.63604 3.74801C1.94821 5.43 1 7.71126 1 10.09Z" stroke="white" stroke-linecap="round" stroke-linejoin="round"/>
<path d="M10 5.1073V10.09L13 13.0796" stroke="white" stroke-linecap="round" stroke-linejoin="round"/>
</svg>
