<svg width="45" height="28" viewBox="0 0 45 28" fill="none" xmlns="http://www.w3.org/2000/svg">
<path d="M4.88474 3.48584C5.12282 3.48747 5.12282 3.48747 5.36572 3.48913C5.52493 3.48997 5.68415 3.49082 5.8482 3.49168C6.03866 3.49337 6.17793 3.67198 6.13284 3.85704C5.51559 6.39053 4.85751 8.92151 4.05752 11.4431C3.97161 11.7143 3.88582 11.9855 3.8001 12.2567C3.77882 12.3239 3.75754 12.3911 3.73562 12.4603C3.47423 13.2882 3.23322 14.1154 3.06099 14.949C2.9668 15.3994 2.82148 15.8398 2.6304 16.2828C2.45182 16.8166 2.69223 17.1492 3.20998 17.6198C3.35271 17.7539 3.49521 17.888 3.63751 18.0221C3.71327 18.093 3.78903 18.1638 3.86709 18.2368C4.26966 18.6176 4.65455 19.0025 5.04055 19.3872C5.12109 19.4673 5.20163 19.5474 5.28461 19.6299C5.4496 19.7939 5.61451 19.9579 5.77933 20.122C6.02756 20.369 6.27621 20.616 6.52488 20.8629C6.92644 21.2619 7.32506 21.6616 7.72308 22.0614C7.95423 22.2918 8.18949 22.5211 8.42545 22.7504C8.56979 22.893 8.71406 23.0357 8.85825 23.1785C8.92597 23.243 8.99369 23.3075 9.06346 23.3739C9.06773 23.3782 9.07197 23.3824 9.07619 23.3867C9.48782 23.8002 9.28038 24.408 8.81008 24.7533C8.67856 24.8512 8.67856 24.8512 8.54438 24.951C8.41799 25.0422 8.25176 25.0615 8.11278 24.9909C7.76151 24.8125 7.52733 24.6269 7.28134 24.392C7.19082 24.3065 7.1003 24.221 7.00703 24.1329C6.91051 24.0406 6.814 23.9483 6.71456 23.8532C5.93079 23.1133 5.13319 22.3783 4.30591 21.6496C3.32764 20.7864 2.38569 19.9148 1.4566 19.0389C1.30773 18.8989 1.30773 18.8989 1.15585 18.756C1.06865 18.6736 0.98145 18.5912 0.891607 18.5063C0.63532 18.2664 0.63532 18.2664 0.314755 18.0286C-0.193541 17.5888 0.0150922 17.1161 0.227771 16.6448C0.485801 16.0357 0.646207 15.4214 0.813373 14.8051C1.04089 13.983 1.28333 13.1651 1.59581 12.3496C1.75153 11.9379 1.869 11.5268 1.96952 11.111C2.15078 10.3633 2.40646 9.62325 2.67363 8.88169C2.82526 8.45486 2.96135 8.0319 3.04062 7.60037C3.11271 7.21509 3.25463 6.84613 3.41913 6.46794C3.68086 5.81122 3.83711 5.14453 4.02177 4.48187C4.05418 4.36825 4.0866 4.25462 4.11999 4.13756C4.14882 4.0343 4.17765 3.93104 4.20735 3.82465C4.32679 3.49864 4.32679 3.49864 4.88474 3.48584Z" fill="white"/>
<path d="M34.7958 0.399496C34.6961 0.191587 34.8871 0 35.1177 0C35.3003 0 35.4834 0 35.6678 0C36.0147 0 36.3354 0.185469 36.5063 0.487341C36.8742 1.1374 37.2326 1.78883 37.5714 2.44476C37.7954 2.87509 38.0254 3.30426 38.256 3.73338C38.6809 4.52449 39.1025 5.31618 39.5219 6.10832C39.6976 6.44027 39.8738 6.77216 40.0498 7.10406C40.1206 7.23747 40.1914 7.37088 40.2621 7.50429C40.2972 7.57032 40.3322 7.63636 40.3683 7.7044C42.385 11.5066 42.385 11.5066 42.4913 11.7069C42.5616 11.8395 42.632 11.9721 42.7023 12.1047C42.8859 12.4506 43.0692 12.7966 43.2521 13.1427C43.3089 13.25 43.3089 13.25 43.3668 13.3596C43.4388 13.4956 43.5107 13.6316 43.5824 13.7676C43.6399 13.8761 43.6978 13.9839 43.7577 14.0911C43.9574 14.4484 44.2355 14.8192 44.137 15.2164C44.0201 15.6881 43.5465 16.1129 43.1386 16.5595C43.0479 16.6603 42.9573 16.7612 42.8638 16.8651C42.1499 17.6566 41.4191 18.4426 40.6863 19.228C39.9929 19.9739 39.3389 20.7298 38.7048 21.4934C38.6423 21.5687 38.5509 21.6123 38.4531 21.6123C38.3381 21.6123 38.2302 21.5522 38.1717 21.4533C38.085 21.3065 38.0002 21.1593 37.9164 21.012C37.7853 20.7873 37.655 20.5532 37.6325 20.294C37.5723 19.6 38.0828 19.0601 38.67 18.4043C38.8552 18.1921 39.04 17.9799 39.2246 17.7676C39.319 17.6594 39.4135 17.5512 39.5108 17.4398C39.9681 16.909 40.4022 16.3718 40.8353 15.834C40.9879 15.6449 41.1405 15.4557 41.2931 15.2665C41.3566 15.1875 41.4201 15.1085 41.4855 15.027C41.6024 14.8832 41.7264 14.7413 41.8577 14.6019C42.3281 13.9743 41.5641 13.0877 41.2068 12.4884C40.7644 11.7281 40.3469 10.9685 39.9862 10.1933C39.5773 9.31996 39.0992 8.46223 38.6063 7.60434C37.9641 6.48637 37.3819 5.36341 36.8458 4.22629C36.4574 3.41796 36.0083 2.61984 35.5719 1.82018C35.4899 1.66955 35.4899 1.66955 35.4063 1.51588C35.2979 1.3168 35.1891 1.11781 35.0797 0.918909C35.0058 0.783274 35.0058 0.783274 34.9304 0.6449C34.886 0.563916 34.8416 0.482933 34.7958 0.399496Z" fill="white"/>
<path d="M25.7785 5.66998C23.7137 6.39903 21.5001 6.39958 19.435 5.6713C18.17 5.22518 16.8174 4.88013 15.5091 4.88013C11.7827 4.88013 8.41113 6.61886 8.41113 11.8518C8.41113 18.6826 10.285 23.5781 13.1508 26.5439C14.1676 27.598 16.6465 27.2703 17.7059 26.2148C18.4121 25.5107 19.1592 24.2084 19.9453 22.3093C20.4634 21.2343 21.5281 20.2122 22.607 20.2178C23.6752 20.2178 24.7541 21.2454 25.2687 22.3093C26.0548 24.2084 26.8019 25.5093 27.5081 26.2134C28.5675 27.2717 31.0571 27.598 32.0632 26.5439C34.929 23.5781 36.8029 18.684 36.8029 11.8518C36.8029 6.63699 33.4172 4.88013 29.7049 4.88013C28.3907 4.88013 27.041 5.2242 25.7785 5.66998Z" stroke="white" stroke-linecap="round" stroke-linejoin="round"/>
</svg>
