<svg width="75" height="75" viewBox="0 0 75 75" fill="none" xmlns="http://www.w3.org/2000/svg">
<path d="M10.3611 60.3278C9.38453 61.1793 8.65555 62.1588 8.2475 63.1499C7.96184 63.848 7.82471 64.5369 7.82471 65.1823C7.82471 65.5761 7.87434 65.9514 7.98218 66.3062C8.0639 66.5694 8.17455 66.8212 8.32325 67.0524C8.43408 67.2286 8.56823 67.3957 8.72552 67.5467C8.96173 67.771 9.25317 67.9655 9.60022 68.1006C9.94427 68.238 10.3408 68.3112 10.743 68.3089V66.8783C10.6585 66.8783 10.5943 66.8691 10.5331 66.8555C10.4253 66.8326 10.3378 66.7937 10.2387 66.725C10.1687 66.6724 10.093 66.6037 10.023 66.5098C9.91796 66.3747 9.81889 66.1871 9.75191 65.9628C9.68492 65.7362 9.64686 65.473 9.64686 65.1823C9.64686 64.6994 9.75471 64.1501 9.98215 63.587C10.195 63.0698 10.5331 62.5341 10.9763 62.0261C11.6381 61.2616 12.5419 60.5636 13.5854 60.0645C14.1043 59.8151 14.664 59.6137 15.2443 59.4763C15.8274 59.3389 16.4367 59.2656 17.0665 59.2656C17.9061 59.2656 18.7108 59.3983 19.4629 59.6364C20.5882 59.9888 21.6056 60.5816 22.4191 61.2888C23.2296 61.9939 23.833 62.8131 24.148 63.5869C24.3782 64.1499 24.4862 64.6993 24.4862 65.1822C24.4862 65.4775 24.4454 65.7453 24.3754 65.9719C24.3258 66.1412 24.2558 66.2924 24.1801 66.4113C24.1217 66.5029 24.0605 66.5761 23.9965 66.638C23.9032 66.7272 23.8099 66.7844 23.7196 66.8211C23.6263 66.8553 23.53 66.876 23.3901 66.8783V68.3089C23.6291 68.3112 23.8653 68.2837 24.0898 68.2356C24.4833 68.151 24.8361 67.9907 25.1247 67.7824C25.3404 67.6267 25.5212 67.4483 25.6699 67.2538C25.8974 66.9608 26.0548 66.6358 26.1567 66.2879C26.2586 65.94 26.3084 65.5692 26.3084 65.1823C26.3084 64.5369 26.1715 63.8457 25.8856 63.1499C25.6145 62.4884 25.2005 61.8339 24.6641 61.2181C23.8593 60.2957 22.7865 59.4579 21.498 58.8401C20.8537 58.5333 20.1568 58.2815 19.4135 58.1077C18.6701 57.9291 17.8829 57.833 17.0666 57.833C15.9792 57.833 14.9413 58.007 13.9938 58.3067C12.568 58.7553 11.3377 59.4786 10.3611 60.3278Z" fill="#553C9A"/>
<path d="M20.6324 66.226C20.335 66.4115 20.1602 66.6907 20.1602 66.9905V68.1464C20.1602 68.4439 20.3352 68.7255 20.6324 68.9109C20.9298 69.094 21.3205 69.1627 21.6877 69.094L22.6702 68.9109V66.2238L21.6877 66.0407C21.3203 65.972 20.9298 66.0407 20.6324 66.226Z" fill="#553C9A"/>
<path d="M12.4458 66.0408L11.4604 66.2239V68.911L12.4458 69.0941C12.8132 69.1628 13.2039 69.0941 13.5011 68.911C13.7985 68.7255 13.9733 68.444 13.9733 68.1465V66.9906C13.9733 66.6907 13.7983 66.4115 13.5011 66.2261C13.2039 66.0406 12.8132 65.9721 12.4458 66.0408Z" fill="#553C9A"/>
<path d="M74.3412 62.9282C73.965 61.825 73.4346 60.8363 72.7815 59.9574C71.6357 58.4124 70.1198 57.2108 68.4465 56.2587C67.1901 55.5446 65.8489 54.961 64.4846 54.4597C62.441 53.709 60.3507 53.1321 58.4207 52.5714C56.4907 52.0129 54.727 51.4659 53.3539 50.8296C52.8524 50.5961 52.4007 50.3535 52.01 50.0995C51.4269 49.7173 50.972 49.3098 50.6427 48.8544C50.3134 48.399 50.0917 47.8863 50.0072 47.2454C49.946 46.7877 49.9197 46.3573 49.9197 45.9454C49.9197 44.7324 50.1472 43.6818 50.4386 42.6084C51.3015 41.8439 52.0915 40.9329 52.8378 39.8435C53.5872 38.7472 54.2984 37.4677 55.0069 35.9525C55.4617 35.79 55.9194 35.5954 56.3654 35.3573C57.3858 34.8218 58.3536 34.0711 59.1611 33.0709C59.9658 32.0707 60.6129 30.8278 61.056 29.2944C61.1784 28.8687 61.2368 28.4452 61.2368 28.0286C61.2398 27.1588 60.9773 26.3303 60.5371 25.5888C60.2309 25.0738 59.8432 24.6024 59.3913 24.1744C59.6216 23.506 59.9014 22.6066 60.1522 21.5536C60.4963 20.0912 60.7819 18.3334 60.7819 16.4862C60.7819 15.2937 60.6623 14.0624 60.3533 12.847C60.1231 11.936 59.7818 11.0319 59.3038 10.1668C58.5838 8.86442 57.5371 7.63996 56.0823 6.62835C54.7354 5.69218 53.0474 4.94614 51.0095 4.46773C50.2895 3.79025 49.5665 3.2134 48.826 2.7237C48.1845 2.30257 47.5287 1.94778 46.8581 1.65716C45.8494 1.21771 44.8057 0.927091 43.7358 0.750725C42.666 0.57436 41.5756 0.510347 40.4444 0.510347C38.8847 0.510347 37.2434 0.631634 35.43 0.771233C34.7449 0.826164 34.1706 0.892521 33.672 0.961221C32.9287 1.06654 32.3717 1.17406 31.9258 1.24511C31.7013 1.27938 31.506 1.30692 31.3136 1.32523C31.1213 1.3412 30.9347 1.35277 30.7218 1.35277C30.4361 1.35277 30.1066 1.33446 29.6752 1.28641C28.3546 1.13539 27.1476 0.901895 26.2002 0.672943C25.7279 0.560737 25.3197 0.448677 24.9989 0.352438C24.8387 0.304392 24.6987 0.260886 24.5879 0.224265C24.4743 0.187645 24.3896 0.153368 24.3401 0.135057L24.3431 0.137401C24.1974 0.0779289 24.0575 0.0458492 23.9321 0.0275388C23.8067 0.00454097 23.6961 0 23.5998 0C23.3986 0 23.2557 0.0228513 23.1421 0.0458492C23.0285 0.068847 22.941 0.0962393 22.8622 0.121434C22.7105 0.169481 22.5939 0.219871 22.4773 0.274802C22.2644 0.375582 22.0605 0.487642 21.8446 0.618158C21.4685 0.847111 21.0546 1.13085 20.6143 1.46498C19.9555 1.9639 19.2498 2.56814 18.6085 3.22731C18.2878 3.55456 17.9876 3.89791 17.7165 4.25269C17.4454 4.60747 17.2064 4.97134 17.0168 5.35366C16.0897 7.24651 15.4775 8.99054 15.0986 10.5997C14.7166 12.2086 14.5709 13.6827 14.5709 15.0353C14.5709 17.2485 14.9644 19.1254 15.3435 20.7115C15.3435 20.7871 15.3465 20.858 15.3523 20.9336C15.3641 21.0824 15.3844 21.2358 15.4047 21.3959C15.4368 21.6339 15.4717 21.8788 15.498 22.0848C15.5126 22.1878 15.5243 22.2793 15.5331 22.3504C15.5361 22.3846 15.5389 22.4167 15.5389 22.4396L15.5419 22.4624V22.4693V22.4717V22.6067L15.9121 23.8999C15.3786 24.3576 14.918 24.8703 14.5593 25.4334C14.0578 26.2162 13.7606 27.0996 13.7606 28.0335C13.7606 28.4455 13.8218 28.8712 13.9442 29.2945C14.2358 30.3176 14.6235 31.2102 15.087 31.9885C15.7809 33.158 16.6614 34.0668 17.635 34.7488C18.39 35.2798 19.1976 35.6667 19.9963 35.9528C20.7018 37.468 21.4132 38.7452 22.1624 39.8415C22.9087 40.9332 23.6959 41.8418 24.5588 42.6063C24.8504 43.6797 25.0777 44.7327 25.0807 45.9457C25.0807 46.3577 25.0516 46.788 24.9904 47.2457C24.932 47.6852 24.8096 48.0652 24.6318 48.4085C24.3664 48.9212 23.9787 49.3583 23.4511 49.7727C22.9234 50.1801 22.2499 50.5624 21.4541 50.9172C20.6466 51.2765 19.7107 51.613 18.6932 51.9335C16.909 52.5011 14.8741 53.0366 12.8129 53.6844C11.2679 54.1673 9.70225 54.719 8.2096 55.4079C7.09011 55.9251 6.01428 56.5248 5.02316 57.2366C3.53928 58.3031 2.25933 59.6329 1.37605 61.2763C0.48979 62.9219 -0.00297182 64.8697 1.34855e-05 67.1722C1.34855e-05 67.4973 0.0875204 67.8062 0.230255 68.0923C0.361422 68.3601 0.545205 68.605 0.760893 68.8385C1.16913 69.2734 1.6938 69.6625 2.33807 70.0379C3.46931 70.6925 4.97055 71.3058 6.9151 71.8827C9.83043 72.7456 13.7371 73.5215 18.7893 74.0845C23.8388 74.6476 30.0339 75 37.4971 75C43.972 75 49.488 74.7368 54.132 74.2997C57.6128 73.9701 60.6069 73.5444 63.1463 73.0569C65.053 72.693 66.7059 72.2924 68.1228 71.8713C69.1841 71.5555 70.117 71.2259 70.9273 70.8871C71.5337 70.633 72.0701 70.372 72.5453 70.1042C73.2568 69.6991 73.8281 69.2826 74.2624 68.8088C74.4811 68.5731 74.6589 68.3213 74.7901 68.0466C74.9213 67.7765 75 67.479 75 67.1722C75 65.597 74.7698 64.1893 74.3412 62.9282ZM50.797 52.4547L41.4388 63.9284L40.3951 58.2957L43.0509 56.0892L41.3308 53.837L48.5899 50.841C48.7911 51.0448 49.004 51.2369 49.2284 51.4201C49.7096 51.8069 50.2373 52.1479 50.797 52.4547ZM23.8942 12.7669C32.3312 14.2362 48.8291 11.4279 48.8291 11.4279C48.8291 11.4279 49.007 14.6391 51.8202 17.587C52.9282 18.7451 53.8405 20.5557 54.5257 22.2768C54.3421 22.0091 53.9105 21.9083 53.2662 21.8443C51.8202 21.6909 49.6716 21.5925 47.252 21.684C40.0628 21.961 40.5962 22.4737 37.7742 22.4737C34.9521 22.4737 35.4856 21.961 28.2964 21.684C25.8766 21.5925 23.7281 21.6909 22.2792 21.8443C21.527 21.9221 21.0546 22.0411 20.9468 22.4347C20.9089 22.5812 20.8505 22.746 20.5911 22.8261C21.3871 20.4916 23.6028 17.5093 23.8942 12.7669ZM53.1584 25.8497C53.1584 25.8818 53.1293 29.1182 50.3246 30.2235C49.3713 30.6012 48.1759 30.8095 46.9603 30.8118C45.6776 30.8118 44.5057 30.5829 43.5698 30.1503C42.5348 29.6742 41.8381 28.967 41.497 28.0537C41.4153 27.8408 41.3426 27.628 41.2668 27.4219C41.0451 26.7925 40.4475 25.0439 41.7157 24.2749C42.532 23.7736 45.0654 23.4578 47.494 23.4578C49.7008 23.4578 51.9516 23.6935 52.6104 24.2337C53.0448 24.5908 53.2138 25.2271 53.1584 25.8497ZM34.2816 27.422C34.2058 27.628 34.1299 27.8408 34.0513 28.0538C33.7103 28.967 33.0134 29.6744 31.9814 30.1504C31.0427 30.583 29.8706 30.812 28.5878 30.812C27.3721 30.8096 26.1798 30.6013 25.2236 30.2237C22.4191 29.1182 22.3928 25.8818 22.3898 25.8498C22.3344 25.2273 22.5034 24.591 22.935 24.234C23.5968 23.6938 25.8473 23.4581 28.0544 23.4581C30.48 23.4581 33.0164 23.7739 33.8354 24.2752C35.1008 25.044 34.5032 26.7926 34.2816 27.422ZM24.9146 38.6807C24.1828 37.6095 23.4541 36.2775 22.7047 34.6158L22.457 34.0734L21.7689 33.8743C21.2906 33.7369 20.8242 33.5585 20.3783 33.3227C19.7049 32.9679 19.0664 32.4827 18.4804 31.7594C17.8943 31.0361 17.3696 30.0656 16.9907 28.7542C16.9177 28.5047 16.8886 28.2667 16.8886 28.0332C16.8886 27.5067 17.0489 27.0078 17.3551 26.5317C17.6058 26.1358 17.9557 25.7627 18.3813 25.4239C19.0985 26.2754 19.6931 26.9505 19.909 27.1199C20.32 27.4426 20.5242 27.1313 20.5563 26.527C20.8098 27.8706 21.6233 30.0885 24.25 31.1848C28.0313 32.7618 33.6754 32.1712 35.5906 28.6603C36.4566 27.0763 36.4681 25.5292 37.7742 25.5292C39.0773 25.5292 39.092 27.0765 39.9577 28.6603C41.876 32.1713 47.5201 32.7618 51.3013 31.1848C55.0796 29.6077 55.1059 25.7031 55.1059 25.4284C55.1059 25.2865 55.278 25.179 55.5228 25.1583C55.8435 26.218 56.0095 26.9367 56.0095 26.9367C56.0095 26.9367 56.3711 26.3943 56.9133 25.671C57.2369 25.9685 57.5052 26.289 57.7033 26.6231C57.9687 27.0718 58.1116 27.541 58.1116 28.0285C58.1116 28.2642 58.0795 28.5046 58.0065 28.7518C57.7558 29.6262 57.438 30.3494 57.0824 30.9491C56.546 31.8463 55.9278 32.4643 55.2808 32.9175C54.6365 33.3707 53.9484 33.6659 53.2341 33.8742L52.5432 34.0711L52.2983 34.6158C51.5489 36.2775 50.8172 37.6118 50.0856 38.6807C49.3508 39.752 48.622 40.5576 47.8641 41.1847L47.5639 41.4342L47.4706 41.7661C47.1324 42.9905 46.7943 44.3433 46.7943 45.9454C46.7943 46.4398 46.8264 46.9548 46.8963 47.4972C46.9809 48.1336 47.1674 48.7309 47.4445 49.2802C47.4563 49.3054 47.4736 49.3328 47.4854 49.3558L37.9901 53.2766L27.4657 49.4428C27.7893 48.8477 28.008 48.1977 28.1012 47.4974C28.1742 46.955 28.2033 46.4399 28.2033 45.9455C28.2063 44.3433 27.868 42.9883 27.5269 41.7639L27.4337 41.432L27.1334 41.1847C26.3782 40.5529 25.6464 39.7518 24.9146 38.6807ZM24.8301 52.0885C25.3783 51.7429 25.8826 51.356 26.3285 50.9211L34.3545 53.8463L32.6402 56.0893L35.2932 58.2958L34.3137 63.5989L24.075 52.5235C24.3345 52.3836 24.5881 52.2395 24.8301 52.0885ZM71.872 67.1624C71.869 67.1762 71.8486 67.2219 71.7932 67.2951C71.6882 67.4371 71.4434 67.6659 71.0294 67.9269C70.6707 68.1535 70.1868 68.4075 69.5776 68.6686C68.5077 69.1287 67.0587 69.6069 65.222 70.0602C62.4641 70.7422 58.8228 71.3647 54.2283 71.818C49.6337 72.2666 44.0859 72.5458 37.4971 72.5458C31.1358 72.5458 25.7425 72.2849 21.2412 71.8615C17.8652 71.5433 14.9907 71.1314 12.5943 70.6736C10.7926 70.3281 9.25912 69.955 7.98514 69.575C7.02593 69.2911 6.21262 69.0028 5.54503 68.7213C5.0435 68.5107 4.62089 68.3025 4.27683 68.1102C3.76374 67.8217 3.43722 67.5585 3.27396 67.3778C3.19224 67.2907 3.15156 67.222 3.13701 67.1901C3.12824 67.1763 3.12525 67.1673 3.12525 67.1626C3.12525 65.7893 3.32359 64.6129 3.66746 63.5921C3.96767 62.6994 4.38169 61.9235 4.88602 61.2369C5.7665 60.0353 6.92387 59.0922 8.29991 58.298C9.3261 57.7007 10.4777 57.1902 11.6962 56.7347C13.0635 56.2244 14.5153 55.785 15.9731 55.3615V57.8334H17.0662H18.1594V54.7275C19.553 54.3178 20.9115 53.8966 22.1767 53.3932L38.3539 70.891L52.4874 53.5671C52.5311 53.6196 52.575 53.6724 52.6158 53.7228C53.2047 54.4666 53.6157 55.2768 53.8898 56.1947C54.1609 57.1102 54.2863 58.1356 54.2863 59.2777C54.2863 61.9236 54.2863 64.2284 54.2863 65.7802H49.2081V67.499H61.709V65.7802H56.6305C56.6305 64.2284 56.6305 61.9236 56.6305 59.2777C56.6305 57.6138 56.3885 56.0986 55.7879 54.7161C55.7355 54.597 55.68 54.478 55.6216 54.3613C57.33 54.8899 59.1171 55.366 60.8489 55.9062C62.3328 56.3663 63.773 56.8698 65.0821 57.4672C66.0674 57.9158 66.98 58.4193 67.7905 58.9915C69.0062 59.8589 70.0032 60.882 70.7204 62.1934C71.4346 63.5027 71.872 65.114 71.872 67.1624Z" fill="#553C9A"/>
</svg>
