<svg width="20" height="16" viewBox="0 0 20 16" fill="none" xmlns="http://www.w3.org/2000/svg">
<path d="M1 3.22489C1 2.69629 1.21071 2.18935 1.58579 1.81557C1.96086 1.4418 2.46957 1.23181 3 1.23181H17C17.5304 1.23181 18.0391 1.4418 18.4142 1.81557C18.7893 2.18935 19 2.69629 19 3.22489V13.1903C19 13.7189 18.7893 14.2258 18.4142 14.5996C18.0391 14.9734 17.5304 15.1834 17 15.1834H3C2.46957 15.1834 1.96086 14.9734 1.58579 14.5996C1.21071 14.2258 1 13.7189 1 13.1903V3.22489Z" stroke="white" stroke-linecap="round" stroke-linejoin="round"/>
<path d="M1 3.22498L10 9.20421L19 3.22498" stroke="white" stroke-linecap="round" stroke-linejoin="round"/>
</svg>
