<svg width="44" height="29" viewBox="0 0 44 29" fill="none" xmlns="http://www.w3.org/2000/svg">
<path d="M16.794 10.3181C14.9047 10.9166 12.906 10.9171 11.0164 10.3192C9.86793 9.95585 8.64029 9.67505 7.45271 9.67505C4.06504 9.67505 1 11.0944 1 15.3662C1 20.9424 2.70352 24.9387 5.3088 27.3598C6.23315 28.2203 8.48676 27.9528 9.44983 27.0911C10.0919 26.5163 10.771 25.4532 11.4857 23.9029C11.9567 23.0254 12.9246 22.191 13.9054 22.1956C14.8766 22.1956 15.8574 23.0345 16.3252 23.9029C17.0398 25.4532 17.719 26.5152 18.361 27.09C19.3241 27.9539 21.5874 28.2203 22.5021 27.3598C25.1073 24.9387 26.8109 20.9435 26.8109 15.3662C26.8109 11.1092 23.7329 9.67505 20.3581 9.67505C19.1653 9.67505 17.9402 9.95504 16.794 10.3181Z" stroke="white" stroke-linecap="round" stroke-linejoin="round"/>
<path d="M40.3258 0.128835C40.6898 -0.0256056 41.1055 0.042528 41.4749 0.183452C41.6712 0.258359 41.8613 0.343494 42.0396 0.437319C42.767 0.819894 42.8063 1.71408 42.1021 2.13787C42.0356 2.17838 41.9691 2.21889 41.9005 2.26063C41.6884 2.38958 41.475 2.51761 41.2613 2.64555C40.4434 3.13861 39.6319 3.62932 38.8895 4.16677C38.5066 4.43748 38.0927 4.68843 37.6783 4.94055C37.553 5.01732 37.553 5.01732 37.4253 5.09563C37.3028 5.17065 37.1802 5.24557 37.0574 5.32044C36.9241 5.40179 36.8794 5.57433 36.9566 5.71012C37.0366 5.86552 37.0948 6.00678 37.1198 6.14328C37.2122 6.64697 36.7016 7.02038 36.2818 7.31354C36.0534 7.47298 35.8182 7.62883 35.5858 7.78534C35.207 8.04181 34.8414 8.30458 34.4778 8.56928C34.132 8.79505 33.9087 8.88156 33.4036 8.90066C33.1012 8.88874 33.0182 8.88547 32.887 8.85112C32.7755 8.82191 32.6565 8.85767 32.5868 8.94947C32.4164 9.15036 32.2251 9.32337 32.0067 9.50557C31.9252 9.57382 31.8437 9.64208 31.7597 9.7124C31.6729 9.78434 31.5862 9.85628 31.4968 9.9304C31.4081 10.0041 31.3194 10.0778 31.2281 10.1537C31.0484 10.3028 30.8684 10.4517 30.6883 10.6005C30.4577 10.7914 30.229 10.9831 30.0007 11.1751C29.8758 11.2788 29.7507 11.3824 29.6255 11.486C29.5166 11.5767 29.4078 11.6674 29.2957 11.7609C29.225 11.8086 29.1543 11.8564 29.0824 11.905C29.0375 11.9353 28.9854 11.9515 28.9312 11.9515C28.7562 11.9515 28.6218 11.785 28.7026 11.6297C28.7902 11.4613 28.9208 11.3165 29.1283 11.1464C29.2103 11.0784 29.2924 11.0105 29.3769 10.9405C29.5087 10.8336 29.5087 10.8336 29.6432 10.7246C29.732 10.651 29.8208 10.5774 29.9123 10.5015C30.3227 10.1627 30.7388 9.82809 31.1736 9.50112C31.2408 9.44994 31.3079 9.39876 31.3771 9.34604C31.5456 9.21863 31.7171 9.09271 31.8889 8.96698C31.9112 8.95065 31.9316 8.93243 31.9502 8.91199C32.0623 8.78908 32.0956 8.60664 31.9976 8.47219C31.8507 8.27049 31.6485 8.11512 31.3582 7.94042C31.2631 7.88252 31.168 7.82462 31.07 7.76497C30.9708 7.70595 30.8717 7.64692 30.7695 7.5861C30.6693 7.52538 30.5691 7.46466 30.4658 7.4021C30.0016 7.1212 29.4277 7.08893 28.9379 7.32228C28.3356 7.6092 27.7445 7.90402 27.1564 8.2035C26.3641 8.60435 25.9429 8.81749 25.6607 8.93082C25.2782 9.08448 25.0356 8.71183 25.3879 8.49774C25.5399 8.41936 25.6931 8.34193 25.8474 8.26529C25.9692 8.20338 25.9692 8.20338 26.0934 8.14021C26.356 8.00742 26.6203 7.87608 26.885 7.74495C26.9757 7.69963 27.0664 7.65432 27.1599 7.60763C27.4281 7.47384 27.6973 7.34081 27.967 7.20817C28.0509 7.1667 28.1348 7.12523 28.2213 7.08251C28.4907 6.95175 28.7175 6.8481 28.999 6.76659C29.1605 6.71983 29.2651 6.55854 29.2261 6.39501C29.2205 6.37161 29.2174 6.34686 29.2185 6.32283C29.2454 5.77788 29.7815 5.46517 30.3697 5.07603C30.5924 4.92869 30.8104 4.77903 31.0284 4.62903C32.3553 3.72304 32.3553 3.72304 33.0399 3.69172C33.7647 3.72259 34.5368 3.8973 35.1623 3.52998C35.5031 3.32984 35.8065 3.10109 36.1174 2.8756C36.6879 2.46574 37.3128 2.09118 37.9344 1.7113C38.3819 1.43674 38.8183 1.16076 39.2303 0.865418C39.3033 0.813113 39.3763 0.760808 39.4515 0.706918C39.5934 0.6041 39.7341 0.500669 39.8739 0.396764C40.0375 0.283267 40.1712 0.19444 40.3258 0.128835Z" fill="white"/>
<path d="M30.2586 9.0359C30.3056 9.01226 30.3567 9 30.4093 9V9C30.6367 9 30.7858 9.22277 30.6203 9.37872C30.4656 9.52448 30.255 9.65238 30.0053 9.80313C29.8821 9.87808 29.759 9.95303 29.6321 10.0302C29.5075 10.1054 29.383 10.1806 29.2547 10.2581C29.132 10.3416 29.0093 10.4251 28.8829 10.5111C28.7972 10.5598 28.7116 10.6085 28.6244 10.6581C28.5676 10.6904 28.5043 10.7074 28.439 10.7074V10.7074C28.2084 10.7074 28.0357 10.4924 28.1854 10.317C28.3958 10.0705 28.7569 9.88086 29.1651 9.65149C29.2568 9.59856 29.3485 9.54562 29.443 9.49108C30.006 9.16715 30.0623 9.13475 30.2586 9.0359Z" fill="white"/>
<path d="M29.2586 8.0359C29.3056 8.01226 29.3567 8 29.4093 8V8C29.6367 8 29.7858 8.22277 29.6203 8.37872C29.4656 8.52448 29.255 8.65238 29.0053 8.80313C28.8821 8.87808 28.759 8.95303 28.6321 9.03024C28.5075 9.10542 28.383 9.1806 28.2547 9.25806C28.132 9.34157 28.0093 9.42509 27.8829 9.51114C27.7972 9.55984 27.7116 9.60854 27.6244 9.65808C27.5676 9.69038 27.5043 9.70736 27.439 9.70736V9.70736C27.2084 9.70736 27.0357 9.49243 27.1854 9.31703C27.3958 9.07048 27.7569 8.88086 28.1651 8.65149C28.2568 8.59856 28.3485 8.54562 28.443 8.49108C29.006 8.16715 29.0623 8.13475 29.2586 8.0359Z" fill="white"/>
</svg>
