<svg width="79" height="79" viewBox="0 0 79 79" fill="none" xmlns="http://www.w3.org/2000/svg">
<path d="M3.69385 62.083C26.6682 81.5288 49.6384 81.5288 72.6128 62.083H3.69385Z" fill="white"/>
<path d="M3.69385 62.083C26.6682 81.5288 49.6384 81.5288 72.6128 62.083" stroke="#553C9A" stroke-width="3" stroke-linecap="round" stroke-linejoin="round"/>
<path d="M66.5319 66.2503L58.4238 30.8337L62.4778 22.5003L70.5859 26.667L76.667 20.417L66.5319 1.66699C46.0508 2.57533 42.2481 14.7212 38.1535 26.667H13.8292C10.6035 26.667 7.51006 27.984 5.22921 30.3282C2.94836 32.6724 1.66699 35.8518 1.66699 39.167" fill="white"/>
<path d="M66.5319 66.2503L58.4238 30.8337L62.4778 22.5003L70.5859 26.667L76.667 20.417L66.5319 1.66699C46.0508 2.57533 42.2481 14.7212 38.1535 26.667H13.8292C10.6035 26.667 7.51006 27.984 5.22921 30.3282C2.94836 32.6724 1.66699 35.8518 1.66699 39.167" stroke="#553C9A" stroke-width="3" stroke-linecap="round" stroke-linejoin="round"/>
<path d="M9.7749 66.2503L17.883 26.667L9.7749 66.2503Z" fill="white"/>
<path d="M9.7749 66.2503L17.883 26.667" stroke="#553C9A" stroke-width="3" stroke-linecap="round" stroke-linejoin="round"/>
<path d="M21.9365 72.5003L30.0446 51.667H46.2608L54.369 72.5003" fill="white"/>
<path d="M21.9365 72.5003L30.0446 51.667H46.2608L54.369 72.5003" stroke="#553C9A" stroke-width="3" stroke-linecap="round" stroke-linejoin="round"/>
</svg>
