<svg width="44" height="29" viewBox="0 0 44 29" fill="none" xmlns="http://www.w3.org/2000/svg">
<g clip-path="url(#clip0_176_2)">
<path d="M20.6592 8.13368C20.6592 8.88137 20.8523 9.62173 21.2276 10.3125C21.6029 11.0033 22.1529 11.6309 22.8464 12.1596C23.5398 12.6883 24.363 13.1077 25.269 13.3938C26.175 13.6799 27.146 13.8272 28.1267 13.8272C29.1073 13.8272 30.0784 13.6799 30.9844 13.3938C31.8904 13.1077 32.7136 12.6883 33.407 12.1596C34.1004 11.6309 34.6505 11.0033 35.0258 10.3125C35.401 9.62173 35.5942 8.88137 35.5942 8.13368C35.5942 7.386 35.401 6.64564 35.0258 5.95488C34.6505 5.26411 34.1004 4.63646 33.407 4.10777C32.7136 3.57908 31.8904 3.1597 30.9844 2.87358C30.0784 2.58745 29.1073 2.44019 28.1267 2.44019C27.146 2.44019 26.175 2.58745 25.269 2.87358C24.363 3.1597 23.5398 3.57908 22.8464 4.10777C22.1529 4.63646 21.6029 5.26411 21.2276 5.95488C20.8523 6.64564 20.6592 7.386 20.6592 8.13368Z" stroke="white" stroke-linecap="round" stroke-linejoin="round"/>
<path d="M39.8617 17.0806L33.4609 12.2004" stroke="white" stroke-linecap="round" stroke-linejoin="round"/>
</g>
<path d="M30.2604 11.8519C30.2604 6.65571 27.6694 5.58992 23.8597 5.57739M30.2604 15.3377C29.9433 21.2127 28.0561 24.5496 25.3758 27.241C24.3388 28.2952 21.7731 27.9689 20.6813 26.9106C19.9534 26.2064 19.1835 24.9055 18.3734 23.0065C17.843 21.9426 16.7311 20.915 15.6302 20.915C14.5183 20.9094 13.421 21.9314 12.887 23.0065C12.0769 24.9055 11.307 26.2078 10.5791 26.912C9.48735 27.9675 6.93255 28.2952 5.88466 27.241C2.93119 24.2753 1 19.3798 1 12.549C1 7.31612 4.47468 5.57739 8.31511 5.57739C9.72619 5.57739 11.1872 5.95527 12.5424 6.43142C14.5517 7.13738 16.5101 6.80651 18.4325 5.88997C18.6895 5.76743 18.9711 5.66044 19.2878 5.57739" stroke="white" stroke-linecap="round" stroke-linejoin="round"/>
<defs>
<clipPath id="clip0_176_2">
<rect x="17.459" width="25.6029" height="19.5206" rx="8" fill="white"/>
</clipPath>
</defs>
</svg>
