<svg width="30" height="24" viewBox="0 0 30 24" fill="none" xmlns="http://www.w3.org/2000/svg">
<path d="M12.334 8.67885C12.386 8.67865 12.4381 8.67845 12.4917 8.67824C12.5778 8.67813 12.5778 8.67813 12.6656 8.67802C12.7259 8.67783 12.7861 8.67765 12.8482 8.67746C13.0137 8.67697 13.1792 8.67667 13.3447 8.67644C13.4481 8.6763 13.5515 8.67613 13.6549 8.67595C13.9784 8.67541 14.3018 8.67501 14.6253 8.67478C14.9988 8.67451 15.3722 8.67377 15.7457 8.67263C16.0343 8.67179 16.3229 8.67137 16.6115 8.67128C16.7839 8.67121 16.9563 8.67096 17.1287 8.67025C17.321 8.66948 17.5134 8.6696 17.7057 8.66979C17.7914 8.66925 17.7914 8.66925 17.8788 8.6687C17.9313 8.6689 17.9837 8.66909 18.0378 8.66929C18.0832 8.66922 18.1287 8.66916 18.1756 8.66909C18.2517 8.67754 18.3094 8.69109 18.3614 8.71017C18.4803 8.75375 18.5849 8.84717 18.5843 8.97378C18.5843 8.99907 18.5843 9.02436 18.5843 9.05041C18.584 9.07776 18.5838 9.1051 18.5835 9.13328C18.5834 9.17522 18.5834 9.17522 18.5833 9.21801C18.5831 9.30755 18.5825 9.39708 18.5819 9.48662C18.5817 9.54723 18.5815 9.60784 18.5813 9.66845C18.5809 9.76314 18.5805 9.85784 18.58 9.95253C18.5795 10.0419 18.6519 10.1147 18.7413 10.1146C20.0121 10.1127 21.2829 10.1113 22.5538 10.1105C22.7102 10.1104 22.8666 10.1103 23.0229 10.1102C23.0696 10.1101 23.0696 10.1101 23.1173 10.1101C23.6215 10.1097 24.1258 10.1091 24.63 10.1083C25.1474 10.1075 25.6647 10.107 26.182 10.1069C26.4726 10.1068 26.7632 10.1065 27.0538 10.1059C27.3272 10.1053 27.6006 10.1051 27.8741 10.1053C27.9745 10.1052 28.075 10.1051 28.1754 10.1048C28.3124 10.1043 28.4493 10.1044 28.5863 10.1047C28.6262 10.1044 28.6661 10.1042 28.7072 10.1039C28.934 10.105 29.0832 10.1251 29.2422 10.2037C29.2991 10.2318 29.3605 10.2768 29.3819 10.3365C29.4158 10.4314 29.3553 10.5292 29.274 10.5887C29.262 10.5976 29.2492 10.606 29.2352 10.6142C29.1517 10.6631 29.0534 10.6785 28.9567 10.6807C28.8669 10.6827 28.7777 10.6834 28.6866 10.683C28.6435 10.6831 28.6004 10.6831 28.556 10.6832C28.411 10.6833 28.266 10.683 28.121 10.6827C28.0173 10.6826 27.9136 10.6826 27.8099 10.6827C27.5278 10.6827 27.2458 10.6824 26.9637 10.682C26.6691 10.6816 26.3745 10.6816 26.08 10.6815C25.5853 10.6814 25.0907 10.681 24.5961 10.6805C24.0866 10.68 23.5771 10.6796 23.0677 10.6794C23.0206 10.6793 23.0206 10.6793 22.9725 10.6793C22.815 10.6792 22.6575 10.6792 22.5 10.6791C21.2087 10.6785 19.9175 10.6776 18.6262 10.6763C18.6003 10.6763 18.5793 10.6975 18.5796 10.7235C18.5817 10.8856 18.5831 11.0477 18.5841 11.2099C18.5846 11.2704 18.5852 11.3309 18.586 11.3914C18.5871 11.4784 18.5877 11.5653 18.5881 11.6523C18.5885 11.6794 18.589 11.7064 18.5895 11.7343C18.5895 11.7596 18.5895 11.7849 18.5895 11.8109C18.59 11.8557 18.5892 11.9016 18.5706 11.9423C18.5698 11.944 18.569 11.9457 18.5682 11.9473C18.5296 12.0268 18.4462 12.0739 18.3621 12.1009C18.2516 12.1365 18.1467 12.1469 17.9962 12.1472C17.9448 12.1476 17.8933 12.1479 17.8404 12.1482C17.7565 12.1481 17.7565 12.1481 17.6708 12.148C17.6116 12.1482 17.5523 12.1484 17.4912 12.1487C17.3289 12.1493 17.1667 12.1494 17.0044 12.1493C16.8688 12.1493 16.7332 12.1496 16.5976 12.1498C16.2776 12.1503 15.9577 12.1504 15.6377 12.1502C15.3079 12.15 14.9781 12.1507 14.6483 12.1517C14.3649 12.1526 14.0815 12.1529 13.798 12.1528C13.6288 12.1527 13.4597 12.1529 13.2905 12.1536C13.1019 12.1543 12.9132 12.1539 12.7245 12.1534C12.6408 12.154 12.6408 12.154 12.5553 12.1546C12.4213 12.1537 12.3298 12.1532 12.2619 12.1501C12.0527 12.1407 11.8041 12.0267 11.8051 11.8173C11.8051 11.792 11.8051 11.7667 11.8051 11.7407C11.8053 11.7133 11.8056 11.686 11.8058 11.6578C11.8059 11.6159 11.8059 11.6159 11.806 11.5731C11.8063 11.4835 11.8069 11.394 11.8075 11.3045C11.8077 11.2438 11.8079 11.1832 11.8081 11.1226C11.8084 11.0284 11.8088 10.9342 11.8094 10.84C11.8099 10.7498 11.7368 10.6765 11.6466 10.6767C10.3645 10.6797 9.08233 10.682 7.80016 10.6835C7.64238 10.6836 7.48459 10.6838 7.32681 10.684C7.27969 10.684 7.27969 10.684 7.23162 10.6841C6.72288 10.6847 6.21414 10.6858 5.7054 10.6871C5.18345 10.6884 4.66151 10.6892 4.13957 10.6895C3.84636 10.6897 3.55317 10.6901 3.25998 10.6911C2.98413 10.6921 2.70831 10.6924 2.43246 10.6922C2.33111 10.6922 2.22976 10.6925 2.12841 10.693C1.99021 10.6937 1.85209 10.6935 1.71389 10.6932C1.67362 10.6936 1.63335 10.694 1.59185 10.6944C1.42568 10.6932 1.34373 10.6898 1.22981 10.6453C1.17359 10.6233 1.10441 10.5784 1.06308 10.5344C0.94624 10.41 1.06616 10.2327 1.21987 10.1585C1.2211 10.1579 1.22235 10.1573 1.22359 10.1568C1.29378 10.1234 1.37225 10.1139 1.44997 10.1129C1.54721 10.1116 1.6442 10.1112 1.74177 10.1114C1.78463 10.1114 1.8275 10.1114 1.87166 10.1113C2.01617 10.1113 2.16067 10.1115 2.30518 10.1116C2.40842 10.1116 2.51166 10.1116 2.6149 10.1116C2.89592 10.1116 3.17694 10.1117 3.45796 10.1119C3.75137 10.1121 4.04478 10.1121 4.33819 10.1122C4.8309 10.1122 5.32361 10.1124 5.81632 10.1127C6.32387 10.1129 6.83142 10.1131 7.33898 10.1132C7.37025 10.1133 7.40152 10.1133 7.43374 10.1133C7.59062 10.1133 7.7475 10.1133 7.90437 10.1134C9.19069 10.1137 10.477 10.1142 11.7633 10.1148C11.7891 10.1148 11.8098 10.0935 11.8091 10.0678C11.805 9.9061 11.8022 9.74443 11.8002 9.58274C11.7992 9.52242 11.798 9.4621 11.7964 9.40179C11.7941 9.31502 11.7931 9.22828 11.7922 9.1415C11.7913 9.11459 11.7903 9.08768 11.7893 9.05996C11.7892 8.84294 11.9936 8.68836 12.2104 8.68051C12.2469 8.67919 12.2873 8.67898 12.334 8.67885Z" fill="white"/>
<path d="M18.3673 1.78985C16.3026 2.5189 14.0889 2.51945 12.0239 1.79118C10.7589 1.34505 9.4063 1 8.09794 1C4.37152 1 1 2.73873 1 7.97166C1 14.8025 2.87386 19.698 5.73965 22.6637C6.75643 23.7179 9.23538 23.3902 10.2947 22.3347C11.001 21.6305 11.7481 20.3282 12.5341 18.4292C13.0523 17.3541 14.117 16.3321 15.1959 16.3377C16.2641 16.3377 17.343 17.3653 17.8576 18.4292C18.6437 20.3282 19.3908 21.6291 20.097 22.3333C21.1564 23.3916 23.646 23.7179 24.6521 22.6637C27.5179 19.698 29.3918 14.8039 29.3918 7.97166C29.3918 2.75686 26.006 1 22.2938 1C20.9796 1 19.6298 1.34407 18.3673 1.78985Z" stroke="white" stroke-linecap="round" stroke-linejoin="round"/>
</svg>
