<svg width="28" height="29" viewBox="0 0 28 29" fill="none" xmlns="http://www.w3.org/2000/svg">
<path d="M9 12.8774C9 14.0473 9.52678 15.1693 10.4645 15.9966C11.4021 16.8239 12.6739 17.2886 14 17.2886C15.3261 17.2886 16.5979 16.8239 17.5355 15.9966C18.4732 15.1693 19 14.0473 19 12.8774C19 11.7075 18.4732 10.5854 17.5355 9.75818C16.5979 8.93091 15.3261 8.46616 14 8.46616C12.6739 8.46616 11.4021 8.93091 10.4645 9.75818C9.52678 10.5854 9 11.7075 9 12.8774Z" stroke="white" stroke-linecap="round" stroke-linejoin="round"/>
<path d="M23.4282 21.1955L16.3565 27.4345C15.7315 27.9853 14.8841 28.2948 14.0007 28.2948C13.1172 28.2948 12.2699 27.9853 11.6448 27.4345L4.57151 21.1955C2.70688 19.5504 1.43707 17.4543 0.922656 15.1725C0.408242 12.8907 0.672327 10.5255 1.68152 8.37606C2.6907 6.22664 4.39967 4.3895 6.59231 3.09696C8.78495 1.80442 11.3628 1.11453 13.9998 1.11453C16.6369 1.11453 19.2147 1.80442 21.4074 3.09696C23.6 4.3895 25.309 6.22664 26.3182 8.37606C27.3274 10.5255 27.5914 12.8907 27.077 15.1725C26.5626 17.4543 25.2928 19.5504 23.4282 21.1955Z" stroke="white" stroke-linecap="round" stroke-linejoin="round"/>
</svg>
