<svg width="79" height="79" viewBox="0 0 79 79" fill="none" xmlns="http://www.w3.org/2000/svg">
<path d="M2 39.5C2 44.4246 2.96997 49.3009 4.85452 53.8506C6.73907 58.4003 9.5013 62.5343 12.9835 66.0165C16.4657 69.4987 20.5997 72.2609 25.1494 74.1455C29.6991 76.03 34.5754 77 39.5 77C44.4246 77 49.3009 76.03 53.8506 74.1455C58.4003 72.2609 62.5343 69.4987 66.0165 66.0165C69.4987 62.5343 72.2609 58.4003 74.1455 53.8506C76.03 49.3009 77 44.4246 77 39.5C77 34.5754 76.03 29.6991 74.1455 25.1494C72.2609 20.5997 69.4987 16.4657 66.0165 12.9835C62.5343 9.5013 58.4003 6.73907 53.8506 4.85452C49.3009 2.96997 44.4246 2 39.5 2C34.5754 2 29.6991 2.96997 25.1494 4.85452C20.5997 6.73907 16.4657 9.5013 12.9835 12.9835C9.5013 16.4657 6.73907 20.5997 4.85452 25.1494C2.96997 29.6991 2 34.5754 2 39.5Z" stroke="#553C9A" stroke-width="3" stroke-linecap="round" stroke-linejoin="round"/>
<path d="M52 31.1665H52.0417" stroke="#553C9A" stroke-width="3" stroke-linecap="round" stroke-linejoin="round"/>
<path d="M29.0835 52C30.4413 53.3858 32.062 54.4868 33.8507 55.2384C35.6394 55.99 37.56 56.3771 39.5002 56.3771C41.4403 56.3771 43.361 55.99 45.1496 55.2384C46.9383 54.4868 48.559 53.3858 49.9168 52" stroke="#553C9A" stroke-width="3" stroke-linecap="round" stroke-linejoin="round"/>
<path d="M26.8335 30.8335H26.8752" stroke="#553C9A" stroke-width="3" stroke-linecap="round" stroke-linejoin="round"/>
</svg>
