<svg width="37" height="32" viewBox="0 0 37 32" fill="none" xmlns="http://www.w3.org/2000/svg">
<path d="M21.5226 9.15582C19.4578 9.88487 17.2442 9.88542 15.1791 9.15714C13.9141 8.71102 12.5616 8.36597 11.2532 8.36597C7.52679 8.36597 4.15527 10.1047 4.15527 15.3376C4.15527 22.1685 6.02913 27.064 8.89492 30.0297C9.9117 31.0838 12.3907 30.7562 13.45 29.7006C14.1563 28.9965 14.9033 27.6942 15.6894 25.7951C16.2076 24.7201 17.2723 23.698 18.3511 23.7036C19.4194 23.7036 20.4983 24.7312 21.0129 25.7951C21.799 27.6942 22.546 28.9951 23.2523 29.6992C24.3116 30.7575 26.8012 31.0838 27.8074 30.0297C30.6732 27.064 32.547 22.1699 32.547 15.3376C32.547 10.1228 29.1613 8.36597 25.4491 8.36597C24.1349 8.36597 22.7851 8.71004 21.5226 9.15582Z" stroke="white" stroke-linecap="round" stroke-linejoin="round"/>
<path d="M34.1184 1.29495C34.4725 0.873029 35.0216 0.682104 35.5338 0.884844C35.7014 0.951175 35.8636 1.02617 36.0258 1.09428C36.1007 1.12524 36.1757 1.15619 36.2529 1.18809C36.5842 1.32511 36.8058 1.67292 36.6185 1.97868C36.4828 2.20023 36.289 2.40569 36.0911 2.63007C36.0309 2.69952 35.9707 2.76897 35.9086 2.84053C35.7881 2.97946 35.6671 3.11822 35.5456 3.2568C35.3999 3.42407 35.2572 3.59222 35.1163 3.76143C35.0785 3.80632 35.0408 3.85122 35.0019 3.89747C34.9041 4.0138 34.8067 4.13027 34.7092 4.24674C34.4648 4.48924 34.2379 4.66155 33.8135 4.73409C33.7396 4.73714 33.6657 4.74018 33.5895 4.74331C33.5144 4.74703 33.4393 4.75074 33.3619 4.75457C33.359 4.75466 33.3561 4.75475 33.3531 4.75483C33.2531 4.75784 33.1622 4.81405 33.1149 4.90226C32.9994 5.09033 32.8586 5.2532 32.7042 5.42725C32.6102 5.54315 32.5452 5.64338 32.5023 5.74124C32.3496 6.08861 32.4627 6.52063 32.2335 6.82305C32.1156 6.9787 31.9537 7.11983 31.7646 7.24255C31.5794 7.33959 31.3926 7.42744 31.1949 7.51182C31.006 7.59863 30.8046 7.66003 30.5968 7.66715C30.4683 7.67155 30.3473 7.66714 30.2281 7.65049C29.9129 7.60647 29.5703 7.45543 29.477 7.15113C29.4749 7.14401 29.4728 7.13685 29.4709 7.12965C29.3999 6.86372 29.4541 6.56417 29.6312 6.35351C29.8536 6.08897 30.2274 5.88379 30.5754 5.68552C30.8443 5.54748 31.0196 5.53867 31.3494 5.54192C31.4271 5.54251 31.5048 5.5431 31.5848 5.54371C31.5875 5.54374 31.5901 5.54378 31.5928 5.54381C31.6969 5.54514 31.7912 5.48267 31.8307 5.38629C31.8975 5.26123 31.9751 5.14647 32.0614 5.03477C32.2382 4.80605 32.4723 4.55579 32.3358 4.301C32.1709 3.96017 32.1459 3.66778 32.3505 3.3373C32.5074 3.14102 32.6741 2.95097 32.8468 2.76112C32.907 2.69269 32.9672 2.62426 33.0292 2.55376C33.1511 2.41524 33.2736 2.277 33.3969 2.13906C33.6442 1.86038 33.8811 1.57772 34.1184 1.29495Z" fill="white"/>
<path d="M1.54791 0.0851008C1.8597 -0.028808 2.23931 0.00362164 2.46106 0.250626C2.50517 0.299754 2.54859 0.356475 2.60129 0.423713C2.63222 0.46236 2.66315 0.501007 2.69502 0.540826C2.76954 0.634394 2.84324 0.728313 2.91635 0.822468C3.08394 1.03789 3.25402 1.25223 3.42412 1.4666C3.62419 1.71879 3.82404 1.97106 4.02264 2.22386C4.0843 2.30229 4.14595 2.38072 4.20947 2.46152C4.26497 2.53227 4.32048 2.60302 4.37766 2.67591C4.41969 2.72824 4.4628 2.78012 4.50676 2.83162C4.64183 2.98984 4.7444 3.17896 4.74247 3.38699C4.74349 3.49669 4.75133 3.61158 4.70749 3.71214C4.69101 3.74994 4.66463 3.78627 4.61247 3.85809C4.60061 3.87654 4.59035 3.89372 4.5816 3.90989C4.45595 4.14207 4.69657 4.39339 4.86865 4.59361C4.91735 4.65196 4.96606 4.71032 5.01624 4.77044C5.11909 4.89227 5.22283 5.0137 5.32747 5.13472C5.64465 5.51794 5.69198 5.57512 5.68796 5.76198C5.68636 5.83659 5.66758 5.90902 5.63817 5.97761C5.61238 6.03777 5.59517 6.10219 5.58964 6.16742C5.58196 6.25803 5.57679 6.34876 5.57447 6.43952C5.56939 6.56014 5.56364 6.68892 5.62759 6.79132C5.65077 6.82845 5.68052 6.8597 5.71983 6.89021C5.82579 6.97244 5.95929 7.02449 6.09123 7.00034C6.22286 6.97625 6.32996 6.87418 6.41866 6.77399C6.4369 6.75338 6.45526 6.73265 6.47377 6.71175C6.65667 6.51767 6.67386 6.49943 6.86656 6.44461C6.91032 6.43216 6.95503 6.42613 7.00053 6.42613C7.10704 6.42613 7.2171 6.45349 7.2944 6.52678C7.33125 6.56172 7.34766 6.59206 7.35496 6.63926C7.3709 6.74225 7.34567 6.84812 7.29937 6.94149C7.24205 7.05706 7.17036 7.15702 7.08097 7.24984C6.84364 7.49628 6.50799 7.62761 6.16729 7.65897C6.14142 7.66135 6.11553 7.66333 6.08958 7.66487C5.76355 7.68426 5.44082 7.58293 5.16598 7.40649C5.02653 7.31696 4.90199 7.21802 4.79909 7.1057C4.66082 6.95478 4.59629 6.75123 4.60177 6.54662C4.6024 6.49535 4.60303 6.44409 4.60368 6.39126C4.62933 6.11144 4.74352 5.8241 4.62894 5.56753C4.55708 5.4066 4.43596 5.26104 4.28977 5.08284C4.25002 5.02839 4.21027 4.97395 4.16932 4.91785C3.99636 4.69928 3.94818 4.63838 3.78429 4.55675C3.61803 4.47393 3.44635 4.42218 3.26104 4.40939C3.15321 4.40195 3.03489 4.39293 2.93121 4.36237C2.55495 4.25146 2.30561 4.03495 2.07138 3.78792C2.0132 3.71148 1.95503 3.63505 1.89509 3.55629C1.86278 3.51445 1.83048 3.47261 1.79719 3.42951C1.69501 3.29676 1.59447 3.1634 1.494 3.02997C1.39389 2.89898 1.29345 2.76813 1.193 2.63729C1.12699 2.55106 1.06127 2.46471 0.995858 2.37824C0.725654 2.02169 0.437254 1.67403 0.141786 1.32828C-0.0597375 1.02129 0.196318 0.669385 0.535027 0.5275C0.564317 0.51523 0.59434 0.50298 0.625295 0.490654C0.681885 0.466815 0.738475 0.442975 0.79678 0.418413C0.961151 0.349315 1.12662 0.281616 1.29212 0.213963C1.37653 0.171438 1.46094 0.128914 1.54791 0.0851008Z" fill="white"/>
<path d="M21.8232 12.7989C21.8847 12.8993 21.9275 13.0402 21.9231 13.1439C21.9224 13.1612 21.9204 13.1765 21.9167 13.1909C21.8724 13.3651 21.6493 13.433 21.4552 13.4842C19.5731 13.9812 17.1565 13.7727 15.1676 13.5697C15.1012 13.563 15.0348 13.5562 14.9663 13.5493C14.7759 13.5296 14.5856 13.5092 14.3952 13.4884C14.2846 13.4763 14.174 13.4643 14.06 13.4518C13.9931 13.4422 13.9292 13.4327 13.8672 13.4224C13.5269 13.3655 13.0762 13.1065 13.1381 12.831C13.1607 12.7303 13.2073 12.6439 13.3067 12.5963C13.3595 12.5711 13.4385 12.554 13.6086 12.5173C14.1498 12.471 14.6886 12.5425 15.236 12.6057C15.5488 12.6414 15.8618 12.6735 16.1749 12.7054C16.2664 12.7147 16.2664 12.7147 16.3597 12.7242C17.9337 12.8818 19.4839 12.788 21.0072 12.5954C21.1619 12.5792 21.2473 12.5703 21.3186 12.5707C21.5146 12.5721 21.7231 12.6353 21.8232 12.7989Z" fill="white"/>
</svg>
