<svg width="34" height="32" viewBox="0 0 34 32" fill="none" xmlns="http://www.w3.org/2000/svg">
<path d="M17.3513 0.333252C15.5238 0.333252 13.7374 0.821992 12.2179 1.73767C10.6985 2.65335 9.5142 3.95484 8.8149 5.47756C8.1155 7.00031 7.9325 8.67581 8.2891 10.2923C8.6456 11.9088 9.5256 13.3937 10.8178 14.5591C12.11 15.7246 13.7563 16.5182 15.5487 16.8398C17.341 17.1613 19.1988 16.9963 20.8872 16.3656C22.5755 15.7348 24.0186 14.6667 25.0338 13.2963C26.0491 11.9259 26.591 10.3148 26.591 8.66661C26.591 6.45645 25.6175 4.33683 23.8848 2.77403C22.152 1.21123 19.8018 0.333252 17.3513 0.333252ZM17.3513 13.6666C16.2548 13.6666 15.1829 13.3733 14.2713 12.8239C13.3596 12.2745 12.649 11.4936 12.2294 10.58C11.8098 9.66641 11.7 8.66101 11.9139 7.69111C12.1279 6.72123 12.6559 5.83032 13.4312 5.13105C14.2065 4.43179 15.1943 3.95559 16.2697 3.76266C17.3451 3.56973 18.4598 3.66875 19.4728 4.04719C20.4858 4.42563 21.3516 5.06649 21.9608 5.88874C22.57 6.71098 22.8951 7.67771 22.8951 8.66661C22.8951 9.99271 22.311 11.2644 21.2714 12.2021C20.2317 13.1398 18.8216 13.6666 17.3513 13.6666ZM33.9828 31.9999V30.3332C33.9828 27.2391 32.6199 24.2716 30.194 22.0837C27.7681 19.8957 24.4779 18.6666 21.0472 18.6666H13.6554C10.2246 18.6666 6.9344 19.8957 4.50849 22.0837C2.08258 24.2716 0.719727 27.2391 0.719727 30.3332V31.9999H4.41562V30.3332C4.41562 28.1231 5.3891 26.0035 7.1219 24.4407C8.8547 22.8779 11.2048 21.9999 13.6554 21.9999H21.0472C23.4977 21.9999 25.8479 22.8779 27.5806 24.4407C29.3134 26.0035 30.2869 28.1231 30.2869 30.3332V31.9999H33.9828Z" fill="black"/>
</svg>
