<svg width="26" height="24" viewBox="0 0 26 24" fill="none" xmlns="http://www.w3.org/2000/svg">
<path d="M12.9002 0C11.56 0 10.2501 0.370414 9.1358 1.0644C8.02161 1.75839 7.15315 2.74478 6.64035 3.89885C6.12748 5.05293 5.99328 6.32278 6.25478 7.54792C6.5162 8.77306 7.16151 9.89846 8.10909 10.7817C9.05667 11.665 10.2639 12.2665 11.5783 12.5102C12.8926 12.7539 14.2549 12.6288 15.4931 12.1508C16.7311 11.6728 17.7893 10.8633 18.5338 9.82464C19.2783 8.78602 19.6757 7.56497 19.6757 6.31581C19.6757 4.64074 18.9618 3.03429 17.6912 1.84985C16.4206 0.665416 14.6971 0 12.9002 0ZM12.9002 10.1053C12.0961 10.1053 11.3101 9.883 10.6416 9.46661C9.97301 9.05022 9.45193 8.45838 9.14423 7.76597C8.83653 7.07355 8.75602 6.31157 8.91287 5.57648C9.0698 4.84142 9.45699 4.1662 10.0255 3.63623C10.5941 3.10626 11.3184 2.74535 12.107 2.59913C12.8956 2.45291 13.713 2.52796 14.4559 2.81478C15.1987 3.10159 15.8336 3.5873 16.2803 4.21048C16.7271 4.83365 16.9655 5.56633 16.9655 6.31581C16.9655 7.32086 16.5371 8.28467 15.7748 8.99535C15.0124 9.70603 13.9783 10.1053 12.9002 10.1053ZM25.0962 24V22.7368C25.0962 20.3918 24.0967 18.1428 22.3178 16.4846C20.5389 14.8263 18.1261 13.8948 15.6104 13.8948H10.1899C7.6741 13.8948 5.26137 14.8263 3.48243 16.4846C1.70349 18.1428 0.704102 20.3918 0.704102 22.7368V24H3.41433V22.7368C3.41433 21.0618 4.12819 19.4554 5.39886 18.2709C6.66954 17.0865 8.39288 16.4211 10.1899 16.4211H15.6104C17.4074 16.4211 19.1308 17.0865 20.4014 18.2709C21.6721 19.4554 22.3859 21.0618 22.3859 22.7368V24H25.0962Z" fill="#7C3AED"/>
</svg>
